#tb 0: 1/1000
0,          0,          0,        0,   152064, a2e5c820fd9733e18f9349fb658ca281
0,         33,         33,        0,   152064, 0d487a146393a0b8b84b4be1b371b507
0,         66,         66,        0,   152064, 68372e191eba620a431cfff226026ac3
0,        100,        100,        0,   152064, de7fd274460e36b983fe93acc208d72f
0,        133,        133,        0,   152064, afbd36c61bab65b98ff9acf08e215721
0,        166,        166,        0,   152064, e1e9fc2ab4e7a187a8d8d84aae48d6b9
0,        200,        200,        0,   152064, 11d95de6a9cc5e00511e99534779faac
0,        233,        233,        0,   152064, cd2f5539fdfc2d8eefe6b6da28c13398
0,        266,        266,        0,   152064, a8b3aeed41da7aeb8d5b962ee4a4af93
0,        300,        300,        0,   152064, 4283670bd1c1c506ef18d3dafca22035
